<svg width="1397" height="1251" xmlns="http://www.w3.org/2000/svg" xmlns:xlink="http://www.w3.org/1999/xlink" overflow="hidden"><defs><clipPath id="clip0"><rect x="676" y="590" width="1397" height="1251"/></clipPath></defs><g clip-path="url(#clip0)" transform="translate(-676 -590)"><path d="M1369.5 936.148 1602.3 615 1579.34 909.847 1843.6 861.786 1738.65 1020.03 2013.54 1065.55 1795.25 1195 2045 1350.87 1747.09 1331.6 1828.9 1616.93 1570.9 1415.49 1522.55 1707.84 1352.74 1441.96 1224.71 1811 1176.54 1480.27 991.846 1590.46 1048.45 1386.7 702.444 1422.69 926.797 1266.99 694 1092.02 983.402 1036.76 717.142 742.075 1151.34 964.941 1216.39 742.075Z" stroke="#FFFFFF" stroke-width="13.75" stroke-miterlimit="8" fill="none" fill-rule="evenodd"/><path d="M1271.5 1412.5C1271.5 1385.44 1293.44 1363.5 1320.5 1363.5 1347.56 1363.5 1369.5 1385.44 1369.5 1412.5 1369.5 1439.56 1347.56 1461.5 1320.5 1461.5 1293.44 1461.5 1271.5 1439.56 1271.5 1412.5Z" stroke="#FFFFFF" stroke-width="4.58333" stroke-miterlimit="8" fill="#FFFFFF" fill-rule="evenodd"/><path d="M1436.5 1412.5C1436.5 1385.44 1458.66 1363.5 1486 1363.5 1513.34 1363.5 1535.5 1385.44 1535.5 1412.5 1535.5 1439.56 1513.34 1461.5 1486 1461.5 1458.66 1461.5 1436.5 1439.56 1436.5 1412.5Z" stroke="#FFFFFF" stroke-width="4.58333" stroke-miterlimit="8" fill="#FFFFFF" fill-rule="evenodd"/><path d="M1230 1326 1581.62 1326" stroke="#FFFFFF" stroke-width="27.5" stroke-miterlimit="8" fill="none" fill-rule="evenodd"/><path d="M1638 1000 1565.5 1290 1256.5 1290 1184 1000Z" stroke="#FFFFFF" stroke-width="27.5" stroke-miterlimit="8" fill="none" fill-rule="evenodd"/><path d="M883 1010 1129.67 1010" stroke="#FFFFFF" stroke-width="27.5" stroke-miterlimit="8" fill="none" fill-rule="evenodd"/><path d="M1120 1000 1240 1336.67" stroke="#FFFFFF" stroke-width="27.5" stroke-miterlimit="8" fill="none" fill-rule="evenodd"/><path d="M1271 1050 1320.35 1237.5" stroke="#FFFFFF" stroke-width="13.75" stroke-miterlimit="8" fill="none" fill-rule="evenodd"/><path d="M1406 1046 1406 1237.67" stroke="#FFFFFF" stroke-width="13.75" stroke-miterlimit="8" fill="none" fill-rule="evenodd"/><path d="M0 0 40.403 187.5" stroke="#FFFFFF" stroke-width="13.75" stroke-miterlimit="8" fill="none" fill-rule="evenodd" transform="matrix(-1 0 0 1 1526.4 1050)"/><text fill="#FFFFFF" font-family="STXingkai,STXingkai_MSFontService,sans-serif" font-weight="400" font-size="183" transform="matrix(1 0 0 1 858 849)">eCommerce</text></g></svg>